<?xml version="1.0" encoding="UTF-8"?>
<svg width="31px" height="50px" viewBox="0 0 31 50" version="1.1" xmlns="http://www.w3.org/2000/svg" xmlns:xlink="http://www.w3.org/1999/xlink">
    <!-- Generator: Sketch 50.2 (55047) - http://www.bohemiancoding.com/sketch -->
    <title>Mobile</title>
    <desc>Created with Sketch.</desc>
    <defs></defs>
    <g id="Page-1" stroke="none" stroke-width="1" fill="none" fill-rule="evenodd">
        <g id="v1-page-2" transform="translate(-789.000000, -5205.000000)">
            <g id="Mobile" transform="translate(789.000000, 5205.000000)">
                <path d="M24.3316216,0.00635135135 L7.06810811,0.00635135135 C3.38972973,0.00635135135 0.408648649,2.98743243 0.408648649,6.66445946 L0.408648649,42.6712162 C0.408648649,46.3495946 3.38972973,49.3306757 7.06810811,49.3306757 L24.3316216,49.3306757 C28.01,49.3306757 30.9910811,46.3495946 30.9910811,42.6712162 L30.9910811,6.66445946 C30.9910811,2.98743243 28.01,0.00635135135 24.3316216,0.00635135135 M24.3316216,4.93743243 C25.2843243,4.93743243 26.0586486,5.71310811 26.0586486,6.66445946 L26.0586486,42.6712162 C26.0586486,43.6239189 25.2843243,44.3995946 24.3316216,44.3995946 L7.06810811,44.3995946 C6.11675676,44.3995946 5.34108108,43.6239189 5.34108108,42.6712162 L5.34108108,6.66445946 C5.34108108,5.71310811 6.11675676,4.93743243 7.06810811,4.93743243 L24.3316216,4.93743243" id="Fill-178" fill="#00AEB8"></path>
                <path d="M19.1525676,37.9867568 C19.1525676,39.8935135 17.6066216,41.4394595 15.6998649,41.4394595 C13.7931081,41.4394595 12.2471622,39.8935135 12.2471622,37.9867568 C12.2471622,36.08 13.7931081,34.5327027 15.6998649,34.5327027 C17.6066216,34.5327027 19.1525676,36.08 19.1525676,37.9867568" id="Fill-180" fill="#F15C3E"></path>
            </g>
        </g>
    </g>
</svg>