<?xml version="1.0" encoding="UTF-8"?>
<svg width="55px" height="49px" viewBox="0 0 55 49" version="1.1" xmlns="http://www.w3.org/2000/svg" xmlns:xlink="http://www.w3.org/1999/xlink">
    <!-- Generator: Sketch 50.2 (55047) - http://www.bohemiancoding.com/sketch -->
    <title>Wallet 2</title>
    <desc>Created with Sketch.</desc>
    <defs></defs>
    <g id="Page-1" stroke="none" stroke-width="1" fill="none" fill-rule="evenodd">
        <g id="v1-page-2" transform="translate(-762.000000, -2196.000000)">
            <g id="Wallet-2" transform="translate(762.000000, 2196.000000)">
                <path d="M49.5001507,40.3035861 C49.5001507,42.0936291 48.029506,43.5522379 46.2228432,43.5522379 L8.7786636,43.5522379 C6.97049396,43.5522379 5.49984932,42.0936291 5.49984932,40.3035861 L5.49984932,19.5531215 C5.49984932,17.7615856 6.97049396,16.3044697 8.7786636,16.3044697 L46.2228432,16.3044697 C48.029506,16.3044697 49.5001507,17.7615856 49.5001507,19.5531215 L49.5001507,40.3035861 Z M35.2110901,5.8419 C35.6947755,5.58063435 36.2221583,5.44925505 36.7615956,5.44925505 C37.9730692,5.44925505 39.0835868,6.10316566 39.654667,7.14972122 L41.6783102,10.8552146 L25.8779212,10.8552146 L35.2110901,5.8419 Z M48.0385469,11.0433259 L44.4839867,4.55647299 C42.9003315,1.64522714 39.874661,0 36.7615956,0 C35.3542369,0 33.9137284,0.337405929 32.5937646,1.04655556 L14.3282376,10.8552146 L8.7786636,10.8552146 C3.92975535,10.8552146 0,14.7488194 0,19.5531215 L0,40.3035861 C0,45.1078882 3.92975535,49 8.7786636,49 L46.2228432,49 C51.0702447,49 55,45.1078882 55,40.3035861 L55,19.5531215 C55,15.3668992 52.0135065,11.8734042 48.0385469,11.0433259 Z" id="Fill-205" fill="#00AEB8"></path>
                <path d="M41.25,27 L13.75,27 C12.2310959,27 11,25.8808219 11,24.5 C11,23.1191781 12.2310959,22 13.75,22 L41.25,22 C42.7689041,22 44,23.1191781 44,24.5 C44,25.8808219 42.7689041,27 41.25,27" id="Fill-207" fill="#F15C3E"></path>
            </g>
        </g>
    </g>
</svg>