<?xml version="1.0" encoding="UTF-8"?>
<svg width="61px" height="53px" viewBox="0 0 61 53" version="1.1" xmlns="http://www.w3.org/2000/svg" xmlns:xlink="http://www.w3.org/1999/xlink">
    <!-- Generator: Sketch 50.2 (55047) - http://www.bohemiancoding.com/sketch -->
    <title>Heart@2x</title>
    <desc>Created with Sketch.</desc>
    <defs></defs>
    <g id="Design-&amp;-Moodboard" stroke="none" stroke-width="1" fill="none" fill-rule="evenodd">
        <g id="home" transform="translate(-294.000000, -2056.000000)" fill-rule="nonzero">
            <g id="Group-13" transform="translate(0.000000, 1717.000000)">
                <g id="Group-11" transform="translate(87.000000, 274.000000)">
                    <g id="Group">
                        <g id="Group-41" transform="translate(101.000000, 65.000000)">
                            <g id="Heart@2x" transform="translate(106.000000, 0.000000)">
                                <path d="M54.8384973,18.0314437 C54.6675784,20.7736312 53.3689297,23.3251312 51.4385514,25.2674437 L50.138227,26.5752562 L30.5914703,46.2616312 L11.0430378,26.5769437 L9.74271351,25.2674437 C7.81401081,23.3251312 6.51368649,20.7736312 6.34444324,18.0314437 C6.14838919,14.8775062 7.27947027,11.8788187 9.47460541,9.66650625 C11.6697405,7.45419375 14.6490919,6.31850625 17.7792541,6.51425625 C20.5039027,6.68469375 23.0358486,7.99419375 24.966227,9.93650625 L26.2665514,11.2460062 L28.5287135,13.5258187 L31.7577405,16.7776312 C33.0061189,18.0348187 35.0320108,18.0348187 36.2803892,16.7776312 C37.5287676,15.5187562 37.5287676,13.4802562 36.2803892,12.2230687 L35.1141189,11.0468812 L36.4831459,9.66650625 C38.5174162,7.61956875 41.2202811,6.49231875 44.0957405,6.49231875 C46.9712,6.49231875 49.6740649,7.61956875 51.7066595,9.66650625 C53.9034703,11.8788187 55.0328757,14.8775062 54.8384973,18.0314437 M56.0265514,5.30600625 C52.7304973,1.99006875 48.4139568,0.33294375 44.0957405,0.33294375 C39.7758486,0.33294375 35.4559568,1.99175625 32.158227,5.31106875 L30.5914703,6.89056875 L29.0230378,5.31106875 C25.7269838,1.99175625 21.4054162,0.33294375 17.0855243,0.33294375 C12.7689838,0.33294375 8.45076757,1.99006875 5.15471351,5.30600625 C-1.41728649,11.9193187 -1.06539459,23.0939437 5.50492973,29.7106312 L6.71811892,30.9323812 L27.2384432,51.5991937 C29.0900649,53.4621937 32.0912,53.4621937 33.9428216,51.5991937 L54.4631459,30.9323812 L55.6763351,29.7106312 C62.2466595,23.0939437 62.600227,11.9193187 56.0265514,5.30600625" id="Fill-51" fill="#F05B40"></path>
                                <path d="M20.7735189,29.2953375 L15.2873568,23.7704625 C14.0926,22.567275 14.0926,20.616525 15.2873568,19.415025 C16.4804378,18.2118375 18.4175189,18.2118375 19.6122757,19.415025 L25.0984378,24.9399 C26.2931946,26.1430875 26.2931946,28.09215 25.0984378,29.2953375 C23.9053568,30.498525 21.9682757,30.498525 20.7735189,29.2953375" id="Fill-53" fill="#00B5BC"></path>
                            </g>
                        </g>
                    </g>
                </g>
            </g>
        </g>
    </g>
</svg>