<?xml version="1.0" encoding="UTF-8"?>
<svg width="50px" height="55px" viewBox="0 0 50 55" version="1.1" xmlns="http://www.w3.org/2000/svg" xmlns:xlink="http://www.w3.org/1999/xlink">
    <!-- Generator: Sketch 50.2 (55047) - http://www.bohemiancoding.com/sketch -->
    <title>percentage-icon</title>
    <desc>Created with Sketch.</desc>
    <defs></defs>
    <g id="Page-1" stroke="none" stroke-width="1" fill="none" fill-rule="evenodd">
        <g id="how-it-works" transform="translate(-1235.000000, -1054.000000)">
            <g id="Group-16" transform="translate(88.000000, 1001.000000)">
                <g id="Group-11">
                    <g id="Group-30" transform="translate(997.000000, 53.000000)">
                        <g id="percentage-icon" transform="translate(150.000000, 0.000000)">
                            <path d="M3.87844828,24.8827586 C2.03246203,23.1379223 1.03362145,20.7230039 0.881896552,17.637931 C0.831321586,16.7781566 0.806034483,15.6908112 0.806034483,14.3758621 C0.806034483,12.959763 0.831321586,11.7965563 0.881896552,10.8862069 C1.03362145,7.69998407 1.99453138,5.18391728 3.76465517,3.33793103 C5.53477897,1.49194479 8.11406352,0.568965517 11.5025862,0.568965517 C14.8911089,0.568965517 17.4703934,1.49194479 19.2405172,3.33793103 C21.010641,5.18391728 21.971551,7.69998407 22.1232759,10.8862069 C22.2244258,12.7069057 22.275,13.8701124 22.275,14.3758621 C22.275,14.8310368 22.2244258,15.9183822 22.1232759,17.637931 C21.971551,20.7230039 20.9727104,23.1379223 19.1267241,24.8827586 C17.2807379,26.6275949 14.739384,27.5 11.5025862,27.5 C8.26578841,27.5 5.72443452,26.6275949 3.87844828,24.8827586 Z" id="Path" fill="#00AEB8"></path>
                            <path d="M3.87844828,53.6344828 C3.60028597,53.3563204 3.4612069,52.9896574 3.4612069,52.5344828 C3.4612069,52.231033 3.56235531,51.9528748 3.76465517,51.7 L41.1646552,2.38965517 C41.5692549,1.83333055 41.9359179,1.454024 42.2646552,1.25172414 C42.5933924,1.04942428 43.0612039,0.948275862 43.6681034,0.948275862 L44.9577586,0.948275862 C45.4129333,0.948275862 45.7795963,1.08735493 46.0577586,1.36551724 C46.3359209,1.64367955 46.475,2.01034255 46.475,2.46551724 C46.475,2.76896703 46.3738516,3.04712517 46.1715517,3.3 L8.77155172,52.6103448 C8.366952,53.1160945 8.000289,53.4827575 7.67155172,53.7103448 C7.34281445,53.9379322 6.87500303,54.0517241 6.26810345,54.0517241 L4.97844828,54.0517241 C4.52327359,54.0517241 4.15661059,53.9126451 3.87844828,53.6344828 Z" id="Path" fill="#F05B40"></path>
                            <path d="M16.0543103,21.8103448 C17.0152347,20.5965457 17.571551,19.1298937 17.7232759,17.4103448 C17.8244258,15.4884961 17.875,14.4264378 17.875,14.2241379 C17.875,13.8701132 17.8244258,12.8333419 17.7232759,11.1137931 C17.6221259,9.34366931 17.0784532,7.85173021 16.0922414,6.63793103 C15.1060296,5.42413186 13.5761598,4.81724138 11.5025862,4.81724138 C9.42901262,4.81724138 7.89914286,5.42413186 6.91293103,6.63793103 C5.92671921,7.85173021 5.38304648,9.34366931 5.28189655,11.1137931 C5.23132159,11.9735675 5.20603448,13.0103388 5.20603448,14.2241379 C5.20603448,15.3873621 5.23132159,16.4494205 5.28189655,17.4103448 C5.43362145,19.1298937 5.98993772,20.5965457 6.95086207,21.8103448 C7.91178641,23.024144 9.42901262,23.6310345 11.5025862,23.6310345 C13.5761598,23.6310345 15.093386,23.024144 16.0543103,21.8103448 Z" id="Path" fill="#FFFFFF"></path>
                            <path d="M30.6577586,51.737931 C28.8117724,49.8919448 27.8129318,47.4011651 27.6612069,44.2655172 C27.6106319,43.4057428 27.5853448,42.3183974 27.5853448,41.0034483 C27.5853448,39.5873492 27.6106319,38.4241425 27.6612069,37.5137931 C27.8129318,34.3275703 28.7738417,31.8115035 30.5439655,29.9655172 C32.3140893,28.119531 34.8933739,27.1965517 38.2818966,27.1965517 C41.6704192,27.1965517 44.2497038,28.119531 46.0198276,29.9655172 C47.7899514,31.8115035 48.7508613,34.3275703 48.9025862,37.5137931 C49.0037361,39.3344919 49.0543103,40.4976986 49.0543103,41.0034483 C49.0543103,41.458623 49.0037361,42.5459684 48.9025862,44.2655172 C48.7508613,47.4011651 47.7520207,49.8919448 45.9060345,51.737931 C44.0600482,53.5839173 41.5186943,54.5068966 38.2818966,54.5068966 C35.0450988,54.5068966 32.5037449,53.5839173 30.6577586,51.737931 Z" id="Path" fill="#00AEB8"></path>
                            <path d="M42.8336207,48.437931 C43.794545,47.2241319 44.3508613,45.7574799 44.5025862,44.037931 C44.6037361,42.1160823 44.6543103,41.054024 44.6543103,40.8517241 C44.6543103,40.4976994 44.6037361,39.4609281 44.5025862,37.7413793 C44.4014363,35.9712555 43.8577636,34.4793164 42.8715517,33.2655172 C41.8853399,32.0517181 40.3554701,31.4448276 38.2818966,31.4448276 C36.208323,31.4448276 34.6784532,32.0517181 33.6922414,33.2655172 C32.7060296,34.4793164 32.1623568,35.9712555 32.0612069,37.7413793 C32.0106319,38.6011537 31.9853448,39.637925 31.9853448,40.8517241 C31.9853448,42.0149483 32.0106319,43.0770067 32.0612069,44.037931 C32.2129318,45.7574799 32.7692481,47.2241319 33.7301724,48.437931 C34.6910968,49.6517302 36.208323,50.2586207 38.2818966,50.2586207 C40.3554701,50.2586207 41.8726963,49.6517302 42.8336207,48.437931 Z" id="Path" fill="#FFFFFF"></path>
                        </g>
                    </g>
                </g>
            </g>
        </g>
    </g>
</svg>